<svg version="1.1" xmlns="http://www.w3.org/2000/svg" viewBox="0 0 2342.222137451172 776.6666158040371" width="4684.444274902344" height="1553.3332316080741" filter="invert(93%) hue-rotate(180deg)">
  <!-- svg-source:excalidraw -->
  
  <defs>
    <style class="style-fonts">
      @font-face {
        font-family: "Virgil";
        src: url("https://excalidraw.com/Virgil.woff2");
      }
      @font-face {
        font-family: "Cascadia";
        src: url("https://excalidraw.com/Cascadia.woff2");
      }
      @font-face {
        font-family: "Assistant";
        src: url("https://excalidraw.com/Assistant-Regular.woff2");
      }
    </style>
    
  </defs>
  <rect x="0" y="0" width="2342.222137451172" height="776.6666158040371" fill="#ffffff"></rect><g stroke-linecap="round" transform="translate(1010.4443054199219 363.77775828043684) rotate(0 230.00001525878906 76.66667175292969)"><path d="M32 0 C152.47 0.28, 273.84 0.69, 428 0 M428 0 C448.74 -0.27, 458.32 10.22, 460 32 M460 32 C461.28 52.8, 461.06 76.97, 460 121.33 M460 121.33 C459.82 143.49, 449.16 153.32, 428 153.33 M428 153.33 C309.05 152.43, 190.04 154.44, 32 153.33 M32 153.33 C8.8 153.7, 1.83 143.82, 0 121.33 M0 121.33 C-1.91 89.86, 1.21 57.97, 0 32 M0 32 C-0.27 10.6, 10.4 -0.3, 32 0" stroke="#e03131" stroke-width="4.5" fill="none" stroke-dasharray="8 12"></path></g><g transform="translate(1141.4623641967773 417.94443003336653) rotate(0 98.9819564819336 22.5)"><text x="98.9819564819336" y="0" font-family="Virgil, Segoe UI Emoji" font-size="36px" fill="#e03131" text-anchor="middle" style="white-space: pre;" direction="ltr" dominant-baseline="text-before-edge">useReducer</text></g><g transform="translate(1123.4443664550781 304.77775828043684) rotate(0 100.29595947265625 17.5)"><text x="0" y="0" font-family="Virgil, Segoe UI Emoji" font-size="28px" fill="#1971c2" text-anchor="start" style="white-space: pre;" direction="ltr" dominant-baseline="text-before-edge">hook de React</text></g><g transform="translate(1601.1109924316406 339.11108652750715) rotate(0 77.99394989013672 17.5)"><text x="0" y="0" font-family="Virgil, Segoe UI Emoji" font-size="28px" fill="#1971c2" text-anchor="start" style="white-space: pre;" direction="ltr" dominant-baseline="text-before-edge">initialState</text></g><g stroke-linecap="round" transform="translate(1562.4443359375 543.7777735392259) rotate(0 129.33334350585938 52.66667175292969)"><path d="M26.33 0 C93.84 0.44, 160.35 -1.98, 232.33 0 M232.33 0 C248.97 1.71, 256.85 8.95, 258.67 26.33 M258.67 26.33 C258.42 43.67, 259.11 63.94, 258.67 79 M258.67 79 C258.98 95.02, 250.19 106.3, 232.33 105.33 M232.33 105.33 C181.28 105.54, 134.41 104.72, 26.33 105.33 M26.33 105.33 C8.77 103.6, -1.66 94.7, 0 79 M0 79 C-0.85 58.48, -0.59 41.47, 0 26.33 M0 26.33 C0.96 9.28, 7.51 -0.85, 26.33 0" stroke="#e03131" stroke-width="4.5" fill="none" stroke-dasharray="8 12"></path></g><g transform="translate(1641.475700378418 578.9444452921556) rotate(0 50.301979064941406 17.5)"><text x="50.301979064941406" y="0" font-family="Virgil, Segoe UI Emoji" font-size="28px" fill="#e03131" text-anchor="middle" style="white-space: pre;" direction="ltr" dominant-baseline="text-before-edge">reducer</text></g><g stroke-linecap="round"><g transform="translate(1587.7777099609375 370.4444096883144) rotate(0 -53.333343505859375 28.666671752929688)"><path d="M0.94 0.84 C-17.01 10.3, -89.46 48.11, -107.54 57.61" stroke="#1971c2" stroke-width="4.5" fill="none" stroke-dasharray="8 12"></path></g><g transform="translate(1587.7777099609375 370.4444096883144) rotate(0 -53.333343505859375 28.666671752929688)"><path d="M-90.69 39.14 C-94.44 43.58, -100.64 49.37, -107.54 57.61" stroke="#1971c2" stroke-width="4.5" fill="none"></path></g><g transform="translate(1587.7777099609375 370.4444096883144) rotate(0 -53.333343505859375 28.666671752929688)"><path d="M-82.76 54.29 C-89.09 54.06, -97.76 55.12, -107.54 57.61" stroke="#1971c2" stroke-width="4.5" fill="none"></path></g></g><mask></mask><g stroke-linecap="round"><g transform="translate(1562.4443359375 542.4444096883144) rotate(0 -44 -27.333328247070312)"><path d="M-0.39 -0.56 C-15.3 -9.71, -74.39 -45.87, -89.07 -54.73" stroke="#1971c2" stroke-width="4.5" fill="none" stroke-dasharray="8 12"></path></g><g transform="translate(1562.4443359375 542.4444096883144) rotate(0 -44 -27.333328247070312)"><path d="M-64.55 -49.82 C-73.71 -53.33, -81.1 -53.9, -89.07 -54.73" stroke="#1971c2" stroke-width="4.5" fill="none"></path></g><g transform="translate(1562.4443359375 542.4444096883144) rotate(0 -44 -27.333328247070312)"><path d="M-73.44 -35.22 C-79.64 -43.58, -84.05 -49.06, -89.07 -54.73" stroke="#1971c2" stroke-width="4.5" fill="none"></path></g></g><mask></mask><g stroke-linecap="round" transform="translate(603.7777048746743 375.3333129882817) rotate(0 127.33334350585938 56.666656494140625)"><path d="M28.33 0 C93.9 1.66, 165.05 1.92, 226.33 0 M226.33 0 C245.22 -0.8, 254.36 8.77, 254.67 28.33 M254.67 28.33 C255.14 49.41, 255.64 67.69, 254.67 85 M254.67 85 C252.9 103.96, 246.13 112.69, 226.33 113.33 M226.33 113.33 C164.16 114.62, 107.35 111.13, 28.33 113.33 M28.33 113.33 C10.3 112.44, 0.37 102.17, 0 85 M0 85 C0.12 67.51, 0.03 54.3, 0 28.33 M0 28.33 C0.44 8.24, 8.63 -1.36, 28.33 0" stroke="#e03131" stroke-width="4.5" fill="none" stroke-dasharray="8 12"></path></g><g transform="translate(674.38308207194 414.49996948242233) rotate(0 56.72796630859375 17.5)"><text x="56.72796630859375" y="0" font-family="Virgil, Segoe UI Emoji" font-size="28px" fill="#e03131" text-anchor="middle" style="white-space: pre;" direction="ltr" dominant-baseline="text-before-edge">dispatch</text></g><g stroke-linecap="round"><g transform="translate(1009.4443054199219 423.40933573537916) rotate(0 -74.9999567667644 1.707171630096937)"><path d="M0.06 0.02 C-25.15 0.46, -125.32 2.22, -150.3 2.7" stroke="#e03131" stroke-width="4.5" fill="none" stroke-dasharray="8 12"></path></g><g transform="translate(1009.4443054199219 423.40933573537916) rotate(0 -74.9999567667644 1.707171630096937)"><path d="M-126.97 -6.28 C-135.7 -3.4, -145.67 0.75, -150.3 2.7" stroke="#e03131" stroke-width="4.5" fill="none"></path></g><g transform="translate(1009.4443054199219 423.40933573537916) rotate(0 -74.9999567667644 1.707171630096937)"><path d="M-126.66 10.82 C-135.51 7.28, -145.59 5.02, -150.3 2.7" stroke="#e03131" stroke-width="4.5" fill="none"></path></g></g><mask></mask><g transform="translate(858.8887532552086 700.5554707845058) rotate(0 282.7757263183593 33.055572509765625)"><text x="0" y="0" font-family="Virgil, Segoe UI Emoji" font-size="52.88891601562498px" fill="#e03131" text-anchor="start" style="white-space: pre;" direction="ltr" dominant-baseline="text-before-edge">action con informacion</text></g><g stroke-linecap="round"><g transform="translate(734.4443511962892 498.8888549804693) rotate(0 72.22222646077466 115.5555470784505)"><path d="M0.96 0 C5.54 27.1, 2.87 124.88, 26.72 163.28 C50.57 201.68, 124.3 218.95, 144.05 230.39" stroke="#e03131" stroke-width="4.5" fill="none" stroke-dasharray="8 12"></path></g></g><mask></mask><g stroke-linecap="round"><g transform="translate(1425.5960094491768 688.2487708187908) rotate(0 63.313013138367296 -23.905789095786872)"><path d="M-0.8 0.49 C20.21 -7.38, 104.81 -39.07, 126.19 -47.11" stroke="#e03131" stroke-width="4.5" fill="none" stroke-dasharray="8 12"></path></g><g transform="translate(1425.5960094491768 688.2487708187908) rotate(0 63.313013138367296 -23.905789095786872)"><path d="M107.2 -30.85 C113.92 -36.52, 120.19 -39.47, 126.19 -47.11" stroke="#e03131" stroke-width="4.5" fill="none"></path></g><g transform="translate(1425.5960094491768 688.2487708187908) rotate(0 63.313013138367296 -23.905789095786872)"><path d="M101.19 -46.86 C109.8 -47.5, 117.95 -45.46, 126.19 -47.11" stroke="#e03131" stroke-width="4.5" fill="none"></path></g></g><mask></mask><g stroke-linecap="round" transform="translate(1932.2221374511719 274.4444274902349) rotate(0 200 123.33333333333331)"><path d="M32 0 C163.4 0.19, 294.25 -1.17, 368 0 M368 0 C389.5 -1.84, 401.34 12.4, 400 32 M400 32 C397.45 78.87, 397.96 123.78, 400 214.67 M400 214.67 C401.98 234.48, 390.85 246.62, 368 246.67 M368 246.67 C268.86 247.69, 169.25 246.77, 32 246.67 M32 246.67 C10.78 247.2, 1.56 235.25, 0 214.67 M0 214.67 C-1.02 169.02, 0.06 125.3, 0 32 M0 32 C-1.99 10.82, 10.49 -0.63, 32 0" stroke="#e03131" stroke-width="4.5" fill="none" stroke-dasharray="8 12"></path></g><g transform="translate(1951.4628807606084 362.2221374511724) rotate(0 180.17266830296398 21.944452921549498)"><text x="0" y="0" font-family="Virgil, Segoe UI Emoji" font-size="35.1111246744792px" fill="#e03131" text-anchor="start" style="white-space: pre;" direction="ltr" dominant-baseline="text-before-edge">genera nuevo estado</text></g><g stroke-linecap="round"><g transform="translate(1829.9999491373696 536.6666158040368) rotate(0 48.888905843098996 -24.444427490234318)"><path d="M-0.45 0.53 C15.85 -7.47, 82.04 -40.09, 98.55 -48.52" stroke="#e03131" stroke-width="4.5" fill="none" stroke-dasharray="8 12"></path></g><g transform="translate(1829.9999491373696 536.6666158040368) rotate(0 48.888905843098996 -24.444427490234318)"><path d="M81.37 -30.36 C88.55 -35.59, 94.52 -42.04, 98.55 -48.52" stroke="#e03131" stroke-width="4.5" fill="none"></path></g><g transform="translate(1829.9999491373696 536.6666158040368) rotate(0 48.888905843098996 -24.444427490234318)"><path d="M73.71 -45.65 C83.61 -45.31, 92.35 -46.22, 98.55 -48.52" stroke="#e03131" stroke-width="4.5" fill="none"></path></g></g><mask></mask><g stroke-linecap="round" transform="translate(589.999936421712 27.77773539225302) rotate(0 157.77776082356775 77.77778625488281)"><path d="M32 0 C96.45 0.87, 159.02 0.24, 283.56 0 M283.56 0 C303.37 0.3, 314.15 11.82, 315.56 32 M315.56 32 C315.42 59.7, 315.09 87.15, 315.56 123.56 M315.56 123.56 C313.96 146.61, 305.68 157.37, 283.56 155.56 M283.56 155.56 C198.36 156.64, 112.84 156.74, 32 155.56 M32 155.56 C11.45 153.82, -1.84 143.34, 0 123.56 M0 123.56 C2.22 106.02, -0.06 86.2, 0 32 M0 32 C1.27 12.12, 9.88 1.07, 32 0" stroke="#e03131" stroke-width="4.5" fill="none" stroke-dasharray="8 12"></path></g><g transform="translate(707.3597132364907 88.05552164713583) rotate(0 40.41798400878906 17.5)"><text x="40.41798400878906" y="0" font-family="Virgil, Segoe UI Emoji" font-size="28px" fill="#e03131" text-anchor="middle" style="white-space: pre;" direction="ltr" dominant-baseline="text-before-edge">state</text></g><g stroke-linecap="round"><g transform="translate(1916.6666666666665 314.44442749023483) rotate(0 -495.55557250976557 -109.99999999999997)"><path d="M0 -0.93 C-164.89 -37.47, -825.13 -182.31, -990.14 -218.81" stroke="#e03131" stroke-width="4.5" fill="none" stroke-dasharray="8 12"></path></g><g transform="translate(1916.6666666666665 314.44442749023483) rotate(0 -495.55557250976557 -109.99999999999997)"><path d="M-965.35 -222.1 C-972.59 -219.72, -974.74 -218.84, -990.14 -218.81" stroke="#e03131" stroke-width="4.5" fill="none"></path></g><g transform="translate(1916.6666666666665 314.44442749023483) rotate(0 -495.55557250976557 -109.99999999999997)"><path d="M-969.03 -205.4 C-975.48 -206.86, -976.79 -209.81, -990.14 -218.81" stroke="#e03131" stroke-width="4.5" fill="none"></path></g></g><mask></mask><g stroke-linecap="round"><g transform="translate(992.2221883138018 354.4444529215499) rotate(0 -47.77778625488281 -84.44445292154947)"><path d="M0.51 -0.95 C-15.23 -28.76, -79.37 -139.82, -95.55 -167.79" stroke="#e03131" stroke-width="4.5" fill="none" stroke-dasharray="8 12"></path></g><g transform="translate(992.2221883138018 354.4444529215499) rotate(0 -47.77778625488281 -84.44445292154947)"><path d="M-76.39 -151.73 C-81.85 -154.99, -82.43 -160.02, -95.55 -167.79" stroke="#e03131" stroke-width="4.5" fill="none"></path></g><g transform="translate(992.2221883138018 354.4444529215499) rotate(0 -47.77778625488281 -84.44445292154947)"><path d="M-91.2 -143.17 C-93.5 -148.28, -90.99 -155.1, -95.55 -167.79" stroke="#e03131" stroke-width="4.5" fill="none"></path></g></g><mask></mask><g stroke-linecap="round" transform="translate(10 10) rotate(0 212.22223917643225 84.44444020589191)"><path d="M32 0 C146.89 -2.22, 256.25 -3.23, 392.44 0 C413.6 1.04, 424.46 8.42, 424.44 32 C428.26 70.2, 427.62 115.16, 424.44 136.89 C423.49 161.21, 412.75 168.19, 392.44 168.89 C258.74 171.87, 127.17 168.84, 32 168.89 C13.62 169.34, 2.58 159.49, 0 136.89 C3.09 107.96, 3.29 75.64, 0 32 C0.67 9.14, 9.44 1.76, 32 0" stroke="none" stroke-width="0" fill="#a5d8ff"></path><path d="M32 0 C152.35 2.29, 273.31 1.43, 392.44 0 M392.44 0 C413.64 -0.8, 426.02 11.49, 424.44 32 M424.44 32 C425.4 55.46, 426.52 80.09, 424.44 136.89 M424.44 136.89 C426.17 157.27, 413.07 167.94, 392.44 168.89 M392.44 168.89 C294.88 168.73, 197.45 168.86, 32 168.89 M32 168.89 C9.05 167.2, 1.49 158.95, 0 136.89 M0 136.89 C-0.64 98.14, 1.67 57.21, 0 32 M0 32 C0.67 11.48, 11.04 -1.77, 32 0" stroke="#e03131" stroke-width="4.5" fill="none" stroke-dasharray="8 12"></path></g><g transform="translate(106.41429392496741 76.94444020589191) rotate(0 115.80794525146484 17.5)"><text x="115.80794525146484" y="0" font-family="Virgil, Segoe UI Emoji" font-size="28px" fill="#e03131" text-anchor="middle" style="white-space: pre;" direction="ltr" dominant-baseline="text-before-edge">render component</text></g><g stroke-linecap="round"><g transform="translate(583.3333333333333 101.11106872558594) rotate(0 -70 -2.2222264607747206)"><path d="M-0.83 -0.96 C-24.04 -1.54, -115.58 -3.42, -138.96 -4.09" stroke="#e03131" stroke-width="4.5" fill="none" stroke-dasharray="8 12"></path></g><g transform="translate(583.3333333333333 101.11106872558594) rotate(0 -70 -2.2222264607747206)"><path d="M-115.27 -12.07 C-124.64 -7.9, -130.18 -8.87, -138.96 -4.09" stroke="#e03131" stroke-width="4.5" fill="none"></path></g><g transform="translate(583.3333333333333 101.11106872558594) rotate(0 -70 -2.2222264607747206)"><path d="M-115.68 5.03 C-124.83 3.62, -130.24 -2.93, -138.96 -4.09" stroke="#e03131" stroke-width="4.5" fill="none"></path></g></g><mask></mask></svg>